# xmcd
#
# Track frame offsets:
#       150
#       24718
#       49779
#       72079
#       94838
#       115269
#       137677
#       159856
#       182209
#       207619
#       232123
#
# Disc length: 3383 seconds
#
# Revision: 0
# Processed by: cddbd v1.5.2PL0 Copyright (c) Steve Scherf et al.
# Submitted via: WaveLab 4.01
#
DISCID=9b0d350b
DTITLE=Gemikst door Panic en Neophyte - Rotterdam Records 50 - De Megamiks - cd3
DYEAR=2007
DGENRE=Hardcore
TTITLE0=Euromasters - Alles naar de klote (Neophyte and Evil Activities rmx)
TTITLE1=Men of Steel - The future is ours (Panic and Tha Playah rmx)
TTITLE2=Bald Maniacs - Creators of Rotterdam hardcore (Dj Niel rmx)
TTITLE3=Armageddon - You'll never be mine (Choasphere rmx)
TTITLE4=Neophyte - Neighbours hell (Mental Wreckage rmx)
TTITLE5=Neophyte - Inside of me (Tieum rmx)
TTITLE6=Neophyte - Execute (Prankster rmx)
TTITLE7=Rotterdam Termination Source - Poing (Partyraiser rmx)
TTITLE8=King Dale - Utter (Elite Forces rmx)
TTITLE9=Neophyte vs. The Stunned Guys - Army of real hardcore (Headbanger rmx)
TTITLE10=Neophyte - Recessions (The Relic rmx)
EXTD=
EXTT0=
EXTT1=
EXTT2=
EXTT3=
EXTT4=
EXTT5=
EXTT6=
EXTT7=
EXTT8=
EXTT9=
EXTT10=
PLAYORDER=
